<?xml version="1.0" encoding="UTF-8"?> <svg xmlns="http://www.w3.org/2000/svg" role="img" aria-hidden="true" viewBox="0 0 135 176"><path fill="#7e9358" d="M134.78 167.35H11.07s7.49-62.35 14.32-66.59 28-16.59 28-16.59L86 82.87s23.75 15 33.19 24.69 15.59 59.79 15.59 59.79z"></path><path fill="#7e9358" d="M23.44 103.53s-25.07 49-23.11 56.65S8.3 175 15 175.48s13.75-8 13.75-8l-11.66-20.63z"></path><path fill="#260101" d="M27 54.52c.65 6.68 0 31.58 44.27 31.58 49 0 45.91-30.11 45.91-30.11-1.71 4.47-3.09 4.91-5.89 3.93 0 0-6.88-34.51-9.44-38.91S97 2 72.9 1.48C50.78 1 43.79 20.69 42.16 26.55s-4.72 30.27-4.72 30.27c-2.08.57-3.93-.49-6.35-3.09-.19 3.38.47 6.19 2.95 7.85-1.79 1.5-5.26-4.77-7.04-7.06z"></path><path fill="#ddbf94" d="M86 82.87L85.82 77a52.91 52.91 0 0 1-6 8.55c-4.33 5-12.76 5.11-17.3 1.52-2.12-1.66-4.62-5.92-6.56-9.79l.35 5.91-3.74 2.44L49.81 106l23.11 10.74 21.48-12.39z"></path><path fill="#c79367" d="M62.53 87.07c4.54 3.59 13 3.5 17.3-1.52a52.91 52.91 0 0 0 6-8.55l-.16-7.73c-5.1 2-12.62 1.78-16.57 1.78-5.16 0-8.61-1.71-13.29-3.17l-.39-.13.58 9.53c1.91 3.87 4.41 8.13 6.53 9.79z"></path><path fill="#8fab6c" d="M91.15 90.68s-4.56 19.83-18.55 20.18-24.1-18.23-24.1-18.23l1 74.72h40.35z"></path><path fill="#ddbf94" d="M48.18 24.6s.68 31.4 1.31 34.5c1.14 5.7 8.84 20.35 22.78 19.37S92.13 66.58 94.08 58c1.84-8.09.66-36.63.66-36.63C76.37 9.23 60.13 7.15 48.18 24.6z"></path><path fill="#3f622e" d="M101.57 143.74s11.07-9.12 11.07-11.4-5.89-35.34-7.49-37.43-19.2-12-19.2-12l3.92 84.48h11.4s8.3-12.55 8.13-14.5-7.83-9.15-7.83-9.15zM53.39 84.17l1.3 83.18h-12S34 151.76 34.35 149.8s9.27-9.61 9.27-9.61S33.21 129.94 32.88 127 36 94.94 36.81 93.31s10.43-6.7 16.58-9.14z"></path><path fill="#341644" d="M72.27.5C42 .83 43.44 33.39 43.44 33.39l11.92-.21 1.83-11.68.68 11.64 20.7-.34 1.07-7.39 1.28 7.35h2.94l1-7.47s.69 4.72-.17 7.43l15.95-.27S102.54.18 72.27.5z"></path><path fill="#3f622e" d="M32.88 165.06c-1.3 3.42-5.21 5.37-9.27 5.89s-11.72-19.53-10.42-22.29 12.57-8.34 15.13-7.7 5.86 20.68 4.56 24.1z"></path><path fill="#ae5d9e" d="M97.75 19.74c-3.24-5.64-6.19-10.89-7.85-5.59-2.79-4.33-4.91-4.56-8.67.77-3.51-9.82-10.35-.79-8.58 2.3-5.11-7.86-8.4-11-9-1.58-1.91-5.4-6.35-6.09-8.64.19-1.85-6.48-5.62-1.69-6.88 5-.33 1.86 2.41-2.83 3.68-4.16 1.53 8.57 3.68 5.15 7.5-1.15 4.91 8.2 7.16 13.42 8.17-.13 6.39 14.73 8.65.67 9.38-.76l.06-.05c6.11 12.32 6.2 4.91 8.84.43 3.14 3.35 5.13 11.48 6.41.09 2.83 3.22 7.7 8.3 5.58 4.64z"></path><path fill="#3f622e" d="M21.16 127.3s-5-2.28-2.76 1.62 5.7 15.31 5.7 15.31-10.26-10.09-12.7-9.61-3.59 3.59-.33 3.09S25.39 146 25.39 146c-1.5-9.38-1.78-17.39-4.23-18.7zM108.19 143c-.21-1.42 6.88-17.91 9.66-18.77s4.12-1.52 1.63 1.85-9.22 16.38-9 16.05 4.45-2.27 6.73-5 2.6.76.43 2.94a42.06 42.06 0 0 1-6.94 4.91l2.82 22.38h-2s-3.11-22.97-3.33-24.36z"></path><path fill="#c79367" d="M65 51.19a1.73 1.73 0 0 0 1 2.13 5.9 5.9 0 0 0 1.57 0 5.16 5.16 0 0 1 2.5 1.25 3.17 3.17 0 0 0 2.63.79c1-.29 1.53-1.38 2.47-1.77s1.87-.08 2.69-.49a1.87 1.87 0 0 0 .65-2.57 2 2 0 0 0-.36-.45.69.69 0 0 0-.6-.15c-.26.09-.34.44-.31.71a2.39 2.39 0 0 1 .06.84 1.18 1.18 0 0 1-1.11.72 6 6 0 0 0-1.4.1c-.85.3-1.34 1.37-2.23 1.44s-1.55-1-2.45-1.35a3.38 3.38 0 0 0-1.58 0 3 3 0 0 1-1.58 0 1.11 1.11 0 0 1-.75-1.24c.13-.46 1.5-1.58.44-1.61-.7-.1-1.49 1.14-1.64 1.65z"></path><path fill="#bf764c" d="M80.93 59.56c-.74.12-1.38.06-2.11.18a7.52 7.52 0 0 1-11.29 6.63C65.09 65 64 62.51 63.74 59.83c-.73-.12-1.44-.29-2.15-.48 2.68-.39 6.74-1.82 9.76-1.71s7.45 1.49 9.58 1.92z"></path><path fill="#fff" d="M77.65 59.86a7.54 7.54 0 0 1-6.47 3.92A6.31 6.31 0 0 1 65 59.73a35.89 35.89 0 0 1 12.65.13zM77.41 43.2c6.3-5.37 10.45-6.36 12.34-2.55-2.24 4.49-6.43 5.19-12.34 2.55zM64.38 42.9c-3.6 1.57-7.28 2.53-11.79-2.38 3.53-4.13 7.59-1.71 11.79 2.38z"></path><circle cx="58.62" cy="41.25" r="2.6" fill="#280415"></circle><circle cx="83.42" cy="42.01" r="2.6" fill="#280415"></circle><circle cx="56.76" cy="40.51" r=".85" fill="#fff"></circle><circle cx="81.14" cy="41.93" r=".85" fill="#fff"></circle><path fill="#ddbf94" d="M52.28 123.89L51.1 126s-12.81 1.66-14.1 4.1-2.12 8.85-4.23 11.29a17 17 0 0 1-5.91 3.87s1 12.53 2.77 14.64 6 .9 6 .9 14.59 3.66 18.29 4 4.91-3.93 4.91-3.93l4.4-.32a6.88 6.88 0 0 0 .81-7.86s5 .49 5.53-1.3 2-4.56 1.79-7-5.09-6.87-3.93-7.16l-12.53-5.37z"></path><path fill="#d13585" d="M52.09 120.47l-9.76 10.57 26.2 10.09 2.93-13.67-19.37-6.99z"></path><path fill="#bf1f6a" d="M40.85 142.44l23.12 10.25 4.56-11.56-26.2-10.09-1.48 11.4z"></path><ellipse cx="63.42" cy="119.6" fill="#959599" rx="15.55" ry="15.71"></ellipse><path fill="#666" d="M77.33 112.59v.51a15.51 15.51 0 0 1-29.46 7 15.55 15.55 0 1 0 29.46-7.52z"></path><path fill="#280415" d="M60.87 40.48c1.36.83 2.6 1.84 4 2.58-2-2-6.48-6.14-9.24-5.68-1.81.31-3.3 2.69-3.1 3.14.97-.25 3.09-3.32 8.34-.04zM81.42 40.62c-1.36.84-2.6 1.84-4 2.58 2-2 6.48-6.14 9.24-5.68 1.82.31 3.31 2.69 3.1 3.13-.98-.24-3.11-3.32-8.34-.03z"></path><path fill="#393a3c" d="M68.68 105.6c0 .19-.08.23-.12.24s-.09 0-.13-.24.08-.24.13-.25.08.04.12.25z"></path><path fill="#393a3c" d="M75.61 123.15a17.15 17.15 0 0 0 .24-6.06 3.89 3.89 0 0 1 1.18 0 3.62 3.62 0 0 0-1.22-.19 16.32 16.32 0 0 0-2.18-5.9l1.39-.29h-1.55l-.07-.1a18.5 18.5 0 0 0-2.34-3l1.34-.17c-.54-.06-1.09-.1-1.63-.12a20 20 0 0 0-2.52-2.08c.63.67 1.22 1.36 1.78 2a30.54 30.54 0 0 0-3.31.14 11.34 11.34 0 0 0-4.82-2.94 13.32 13.32 0 0 1 3.93 3 23.57 23.57 0 0 0-4.61 1.08 19.72 19.72 0 0 0-2.22-2.76 33.22 33.22 0 0 1 1.73 3.08 23.51 23.51 0 0 0-4.37 2.16c-.22-1.08-.41-2.16-.58-3.25a23.77 23.77 0 0 0 0 3.58 30.62 30.62 0 0 0-3.93 3.17v-2.36a16.48 16.48 0 0 0-.53 2.87c-.58.57-1.13 1.16-1.67 1.77l1.64-1.13a19.71 19.71 0 0 0 .29 4.54 14.08 14.08 0 0 0-1.18 1.78c.41-.46.84-.91 1.27-1.35a20.36 20.36 0 0 0 1 3.43c.11.29.23.58.35.87a4.57 4.57 0 0 0-1.39 1.69 4 4 0 0 1 1.25-1.15l.3-.19a20.57 20.57 0 0 0 2.17 3.73 5.17 5.17 0 0 1-1.79-.2 4.82 4.82 0 0 0 2.1.61 13 13 0 0 0 4.47 3.78 18.18 18.18 0 0 1-3.38-3.73 23.27 23.27 0 0 0 4.32-.44c.32.63 1.79 3.38 2.38 3.69a25.38 25.38 0 0 1-1.71-3.8 44.44 44.44 0 0 0 4.44-1.14v.06a38.88 38.88 0 0 1 .52 5.38 22.52 22.52 0 0 0 .21-5.68c1.31-.43 2.6-.91 3.87-1.45a18.16 18.16 0 0 1-.9 5.42 14.11 14.11 0 0 0 1.69-5.77h.07a30.11 30.11 0 0 0 2.94-1.5 23.8 23.8 0 0 1-1.28 4.62 16.36 16.36 0 0 0 2.2-5.18 8.29 8.29 0 0 0 1.5-1.2 10.15 10.15 0 0 1-1.39.68zm-1-6.26a30.71 30.71 0 0 0-3.29.49 23.72 23.72 0 0 0-1.72-5.56c1-.22 2-.43 2.95-.63a18.34 18.34 0 0 1 2 5.7zm-17-.69a38 38 0 0 1 5.2-2.35c.67 1.86 1.18 3.57 1.68 5.42-2 .67-3.77 1.37-5.34 2.08-.54-1.61-1-3.13-1.56-5.15zm6.14-2.7c1.56-.54 3.38-1.07 4.91-1.43a26 26 0 0 1 1.64 5.55h-.13c-6.47 1.5-3.62 2.63-6.44-4.12zm6.6-5.71a24.84 24.84 0 0 1 2 2.94c-.65.06-1.66.11-3.09.33a15.55 15.55 0 0 0-2-2.85l3-.42zm-3.85.63a16.55 16.55 0 0 1 1.75 2.84H68a38.43 38.43 0 0 0-4.75 1.21 27.57 27.57 0 0 0-1.46-2.8 36 36 0 0 1 4.66-1.25zm-5.35 1.5c.4.87.81 1.82 1.2 2.87a27.86 27.86 0 0 0-5.07 2.37c-.14-.51-.37-1.36-.74-3.06a29.88 29.88 0 0 1 4.58-2.18zm-9.3 5.27c1.45-1 2.61-1.85 4-2.71.13 1.12.3 2.14.51 3.23a21.79 21.79 0 0 0-4 3.38 27.57 27.57 0 0 1-.53-4zm1.83 8.42a28.49 28.49 0 0 1-1.17-3.85 25.87 25.87 0 0 1 4.11-3 52 52 0 0 0 1.43 5.1 30.57 30.57 0 0 0-4 2.26l-.11.08a4.76 4.76 0 0 0-.19-.57zm2.69 5.29l-.09-.12a27.21 27.21 0 0 1-2.17-4.1l.19-.1c1.29-.67 2.75-1.29 4.07-1.82a49.74 49.74 0 0 0 2.23 5.34 31.58 31.58 0 0 1-4.19.8zm5-1c-.67-1.78-1.38-3.83-2-5.57 1.85-.72 3.49-1.32 5.29-2 .92 3.73 1.24 5.89 1.3 6.21-1.49.46-2.89.88-4.59 1.3zm4.4-7.86q2.27-.78 4.54-1.49a39.71 39.71 0 0 1 .46 6.44v.07c-1.32.47-2.66.91-4 1.33a43 43 0 0 0-1-6.4zm5.9 4.71s-.16-5.79-.22-6.51c.91-.28 2-.6 3.23-.87a19.85 19.85 0 0 1 0 6.25c-1 .36-1.86.67-3 1.07z"></path><path fill="#a4286a" d="M109.24 127.83l-14.36-3.33a3.2 3.2 0 0 1-2.39-3.85l2-8.75a3.21 3.21 0 0 1 3.81-2.37l11.23 2.6a3.2 3.2 0 0 1 2.39 3.85z"></path><path fill="#a4286a" d="M108.26 112.94h-2l-4.78 6.33-.55-6.78-2.94-.7 1.35 9.4a3.28 3.28 0 0 1-.53 2.28c-.46.67 2.76-3.14 1.81-2.94 0 0 .52 4.5.61 4.39a20.52 20.52 0 0 0 1.34-1.87l7.29-11s-1.55.95-1.6.89z"></path><path fill="#77b227" d="M108.35 108.64l-6.88 10.71-.55-6.78-2.94-.7 1.34 9.4a3.23 3.23 0 0 1-.52 2.28 3 3 0 0 1-2.94 1.45l-.59 2.55c2.94.69 5-.77 7.33-4.42l9.08-13.75z"></path><path fill="#fff" d="M95.07 127.77l-.26-.06.71-3h.24a2.68 2.68 0 0 0 2.73-1.3 2.93 2.93 0 0 0 .48-2.08l-1.4-9.82 3.56.84.5 6.17 6.63-10.13 3.77.87-9.33 14.07a12.47 12.47 0 0 1-3.52 3.92 5.12 5.12 0 0 1-4.11.52zm.86-2.53l-.44 2.06a4.55 4.55 0 0 0 3.43-.6 12 12 0 0 0 3.36-3.76l8.84-13.39-2.64-.6-7.25 11.21-.6-7.37-2.43-.56 1.31 9a3.48 3.48 0 0 1-.58 2.47 3.15 3.15 0 0 1-3 1.54z"></path></svg> 